<svg width="240" height="79" viewBox="0 0 240 79" fill="none" xmlns="http://www.w3.org/2000/svg">
<path d="M129.676 65.0932C126.945 62.7435 124.31 60.2349 121.77 57.5676C119.293 54.8368 116.975 52.0425 114.816 49.1847C112.72 46.3269 110.783 43.4373 109.005 40.516C107.29 37.5311 105.829 34.6098 104.623 31.752C102.464 34.1018 100.304 36.4833 98.145 38.8965C96.0493 41.2463 94.1758 43.6278 92.5246 46.0411C90.8735 48.3909 89.5398 50.7724 88.5237 53.1856C87.4441 55.5354 86.9043 57.8852 86.9043 60.2349C86.9043 63.0292 87.3806 65.4425 88.3332 67.4747C89.2223 69.4435 90.4289 71.0629 91.9531 72.333C93.4772 73.6032 95.2237 74.524 97.1924 75.0956C99.1611 75.6672 101.193 75.9529 103.289 75.9529C107.481 75.9529 111.926 74.9686 116.626 72.9999C121.325 71.0311 125.675 68.3956 129.676 65.0932ZM117.864 8.60364C117.864 6.38089 117.356 4.79321 116.34 3.84061C115.387 2.8245 114.339 2.31644 113.196 2.31644C112.244 2.31644 111.227 2.63397 110.148 3.26905C109.132 3.90412 108.179 4.82497 107.29 6.0316C106.464 7.17473 105.766 8.57189 105.194 10.2231C104.623 11.8743 104.337 13.6842 104.337 15.6529C104.337 19.2728 105.004 23.115 106.337 27.1795C107.925 25.5283 109.418 23.9089 110.815 22.3212C112.212 20.7335 113.418 19.1776 114.435 17.6534C115.514 16.0657 116.34 14.5416 116.911 13.0809C117.546 11.5567 117.864 10.0643 117.864 8.60364ZM154.539 78.1439C154.539 78.3345 154.412 78.525 154.158 78.7155C153.904 78.906 153.523 79.0013 153.015 79.0013C149.205 77.7947 145.458 76.1117 141.774 73.9525C138.091 71.7297 134.503 69.1577 131.01 66.2364C128.597 68.0781 126.088 69.761 123.484 71.2852C120.881 72.8093 118.213 74.1112 115.482 75.1909C112.815 76.2705 110.116 77.0961 107.385 77.6676C104.718 78.2392 102.146 78.525 99.6692 78.525C97.2559 78.525 94.9697 78.1757 92.8104 77.4771C90.6512 76.842 88.7777 75.8577 87.19 74.524C85.6024 73.1269 84.364 71.4122 83.4749 69.38C82.5223 67.3477 82.046 64.9662 82.046 62.2354C82.046 59.3141 82.7128 56.4563 84.0464 53.6619C85.3801 50.8041 87.0948 48.0098 89.1905 45.279C91.2862 42.5482 93.6043 39.8809 96.1445 37.2771C98.7483 34.6733 101.289 32.133 103.765 29.6563C101.924 24.7027 101.003 20.2254 101.003 16.2245C101.003 13.8747 101.416 11.7155 102.241 9.74677C103.13 7.77805 104.242 6.09511 105.575 4.69795C106.909 3.3008 108.37 2.22118 109.957 1.45909C111.609 0.6335 113.164 0.220703 114.625 0.220703C116.34 0.220703 117.896 0.792267 119.293 1.9354C120.69 3.01501 121.389 4.82497 121.389 7.36525C121.389 8.95293 120.976 10.6041 120.15 12.3188C119.388 14.0335 118.34 15.8117 117.007 17.6534C115.736 19.4316 114.212 21.3051 112.434 23.2738C110.719 25.179 108.909 27.1477 107.004 29.1799C109.1 34.9591 112.212 40.8335 116.34 46.8032C120.531 52.7093 125.612 58.2345 131.582 63.3785C134.82 60.4572 137.424 57.2501 139.393 53.7572C141.362 50.2643 142.346 46.6127 142.346 42.8022C142.346 41.5321 142.155 40.2619 141.774 38.9918C141.457 37.6582 140.79 36.261 139.774 34.8003C139.774 34.6733 139.964 34.5463 140.346 34.4193C140.727 34.2288 141.076 34.1335 141.393 34.1335C142.282 34.1335 142.981 34.451 143.489 35.0861C144.061 35.6577 144.473 36.3563 144.727 37.1818C145.045 38.0074 145.236 38.8648 145.299 39.7539C145.426 40.5795 145.49 41.2463 145.49 41.7544C145.49 45.9458 144.315 50.0103 141.965 53.9477C139.679 57.8217 136.694 61.3781 133.01 64.6169C139.171 69.888 146.125 74.1747 153.873 77.4771C154.317 77.7311 154.539 77.9534 154.539 78.1439Z" fill="#D0D0D0"/>
<path d="M18.24 44.128C18.24 42.144 18.112 40.496 17.856 39.184C17.632 37.872 17.312 37.216 16.896 37.216C16.64 37.216 16.4 37.408 16.176 37.792C15.952 38.144 15.76 38.656 15.6 39.328C15.472 39.968 15.36 40.736 15.264 41.632C15.2 42.496 15.168 43.44 15.168 44.464C15.168 46.288 15.296 48.256 15.552 50.368C15.808 52.448 16.256 54.464 16.896 56.416C17.344 54.368 17.68 52.272 17.904 50.128C18.128 47.952 18.24 45.952 18.24 44.128ZM38.352 22.336C38.352 22.496 38.288 22.624 38.16 22.72C38.032 22.816 37.872 22.928 37.68 23.056C36.72 23.632 35.936 24.432 35.328 25.456C34.72 26.48 34.224 27.6 33.84 28.816C33.488 30.032 33.248 31.28 33.12 32.56C32.992 33.808 32.928 34.96 32.928 36.016C32.928 36.752 32.96 37.664 33.024 38.752C33.12 39.808 33.216 40.976 33.312 42.256C33.44 43.536 33.536 44.896 33.6 46.336C33.696 47.744 33.744 49.184 33.744 50.656C33.744 52.736 33.616 54.752 33.36 56.704C33.136 58.656 32.672 60.4 31.968 61.936C31.296 63.472 30.352 64.704 29.136 65.632C27.92 66.56 26.336 67.024 24.384 67.024C23.488 67.024 22.64 66.848 21.84 66.496C21.072 66.176 20.352 65.712 19.68 65.104C19.04 64.496 18.448 63.792 17.904 62.992C17.392 62.192 16.928 61.312 16.512 60.352C16.096 61.472 15.6 62.512 15.024 63.472C14.48 64.432 13.872 65.264 13.2 65.968C12.528 66.672 11.792 67.216 10.992 67.6C10.192 67.984 9.34399 68.176 8.44799 68.176C7.07199 68.176 5.90399 67.824 4.94399 67.12C4.01599 66.416 3.24799 65.488 2.63999 64.336C2.03199 63.216 1.55199 61.936 1.19999 60.496C0.879991 59.024 0.639991 57.536 0.479991 56.032C0.319991 54.496 0.207991 53.008 0.143991 51.568C0.111991 50.096 0.0799912 48.8 0.0479912 47.68C-0.0160088 45.664 0.0159912 43.76 0.143991 41.968C0.303991 40.144 0.479991 38.512 0.671991 37.072C0.863991 35.6 1.05599 34.336 1.24799 33.28C1.43999 32.224 1.56799 31.44 1.63199 30.928C1.66399 30.736 1.85599 30.608 2.20799 30.544C2.59199 30.48 2.92799 30.448 3.21599 30.448C3.43999 30.448 3.63199 30.48 3.79199 30.544C3.95199 30.576 4.03199 30.672 4.03199 30.832C4.03199 31.024 3.95199 31.36 3.79199 31.84C3.63199 32.288 3.39199 33.152 3.07199 34.432C2.94399 35.008 2.79999 35.84 2.63999 36.928C2.51199 37.984 2.38399 39.184 2.25599 40.528C2.15999 41.872 2.07999 43.312 2.01599 44.848C1.95199 46.352 1.91999 47.824 1.91999 49.264C1.91999 50.384 1.96799 51.616 2.06399 52.96C2.15999 54.272 2.31999 55.584 2.54399 56.896C2.76799 58.176 3.07199 59.424 3.45599 60.64C3.83999 61.856 4.30399 62.928 4.84799 63.856C5.42399 64.784 6.09599 65.52 6.86399 66.064C7.63199 66.64 8.52799 66.928 9.55199 66.928C10.32 66.928 11.024 66.736 11.664 66.352C12.304 65.968 12.896 65.424 13.44 64.72C13.984 64.048 14.464 63.248 14.88 62.32C15.328 61.392 15.728 60.384 16.08 59.296C15.344 57.28 14.8 55.136 14.448 52.864C14.096 50.592 13.92 48.496 13.92 46.576C13.92 45.168 13.968 43.776 14.064 42.4C14.192 41.024 14.368 39.792 14.592 38.704C14.816 37.616 15.104 36.736 15.456 36.064C15.808 35.392 16.224 35.056 16.704 35.056C17.088 35.056 17.424 35.296 17.712 35.776C18.032 36.256 18.288 36.912 18.48 37.744C18.704 38.576 18.864 39.568 18.96 40.72C19.088 41.84 19.152 43.056 19.152 44.368C19.152 46.48 19.008 48.704 18.72 51.04C18.432 53.344 17.984 55.6 17.376 57.808C17.792 58.928 18.272 59.968 18.816 60.928C19.36 61.856 19.968 62.672 20.64 63.376C21.344 64.08 22.112 64.624 22.944 65.008C23.808 65.424 24.752 65.632 25.776 65.632C27.184 65.632 28.336 65.28 29.232 64.576C30.128 63.904 30.832 62.976 31.344 61.792C31.856 60.576 32.208 59.184 32.4 57.616C32.592 56.016 32.688 54.304 32.688 52.48C32.688 50.848 32.624 49.168 32.496 47.44C32.4 45.712 32.288 44 32.16 42.304C32.032 40.576 31.904 38.912 31.776 37.312C31.68 35.68 31.632 34.176 31.632 32.8C31.632 31.808 31.776 30.656 32.064 29.344C32.384 28.032 32.8 26.8 33.312 25.648C33.856 24.464 34.464 23.472 35.136 22.672C35.84 21.84 36.576 21.424 37.344 21.424C37.568 21.424 37.792 21.536 38.016 21.76C38.24 21.952 38.352 22.144 38.352 22.336Z" fill="black"/>
<path d="M53.3396 54.208C53.3396 53.728 53.2596 53.344 53.0996 53.056C52.9396 52.736 52.6836 52.576 52.3316 52.576C51.7876 52.576 51.3716 52.848 51.0836 53.392C50.7956 53.904 50.6676 54.56 50.6996 55.36C50.7956 57.056 51.0996 58.48 51.6116 59.632C52.1556 58.896 52.5716 58.064 52.8596 57.136C53.1796 56.208 53.3396 55.232 53.3396 54.208ZM66.2996 54.16C66.0756 54.64 65.8356 55.136 65.5796 55.648C65.3236 56.128 65.0356 56.608 64.7156 57.088C63.0836 59.52 61.4356 61.328 59.7716 62.512C58.1076 63.696 56.5556 64.288 55.1156 64.288C53.2916 64.288 51.8996 63.424 50.9396 61.696C49.8196 62.816 48.5556 63.664 47.1476 64.24C45.7716 64.816 44.4116 65.104 43.0676 65.104C42.2676 65.104 41.4996 64.992 40.7636 64.768C40.0596 64.544 39.4516 64.208 38.9396 63.76C38.3956 63.28 37.9636 62.688 37.6436 61.984C37.3236 61.248 37.1636 60.4 37.1636 59.44C37.1636 58.288 37.4356 57.12 37.9796 55.936C38.4916 54.72 39.2116 53.632 40.1396 52.672C41.0996 51.68 42.2196 50.864 43.4996 50.224C44.7796 49.584 46.1716 49.264 47.6756 49.264C48.8916 49.264 49.8356 49.44 50.5076 49.792C51.1796 50.112 51.5156 50.416 51.5156 50.704C51.5156 50.832 51.4516 50.928 51.3236 50.992C51.1956 51.056 51.0836 51.088 50.9876 51.088C50.9556 51.056 50.9236 51.04 50.8916 51.04H50.8436C50.4596 50.688 50.0276 50.416 49.5476 50.224C49.0676 50 48.3636 49.888 47.4356 49.888C46.1876 49.888 45.0516 50.16 44.0276 50.704C43.0356 51.216 42.1876 51.904 41.4836 52.768C40.7796 53.6 40.2356 54.528 39.8516 55.552C39.4676 56.576 39.2756 57.584 39.2756 58.576C39.2756 60.496 39.7236 61.888 40.6196 62.752C41.5156 63.616 42.6356 64.048 43.9796 64.048C45.0676 64.048 46.2036 63.776 47.3876 63.232C48.5716 62.688 49.6276 61.92 50.5556 60.928C50.0436 59.776 49.7876 58.272 49.7876 56.416C49.7876 55.2 50.0116 54.144 50.4596 53.248C50.9076 52.352 51.5476 51.904 52.3796 51.904C53.5316 51.904 54.1076 52.576 54.1076 53.92C54.1076 55.264 53.9156 56.48 53.5316 57.568C53.1476 58.624 52.6356 59.584 51.9956 60.448C52.8916 62.112 54.1396 62.944 55.7396 62.944C56.9556 62.944 58.2516 62.432 59.6276 61.408C61.0356 60.384 62.4116 58.896 63.7556 56.944C64.0756 56.464 64.3636 55.968 64.6196 55.456C64.8756 54.944 65.1316 54.432 65.3876 53.92L66.2996 54.16Z" fill="black"/>
<path d="M72.9667 32.704C72.9667 30.88 72.6627 29.424 72.0547 28.336C71.4787 27.216 70.5027 26.656 69.1267 26.656C68.6467 26.656 68.1987 26.816 67.7827 27.136C67.3987 27.424 67.0627 27.824 66.7747 28.336C66.4867 28.848 66.2627 29.44 66.1027 30.112C65.9427 30.784 65.8627 31.504 65.8627 32.272C65.8627 34.384 65.8787 36.304 65.9107 38.032C65.9427 39.76 65.9747 41.392 66.0067 42.928C66.0707 44.464 66.1347 45.952 66.1987 47.392C66.2627 48.832 66.3267 50.304 66.3907 51.808C67.3187 50.56 68.1827 49.136 68.9827 47.536C69.7827 45.904 70.4707 44.24 71.0467 42.544C71.6547 40.816 72.1187 39.104 72.4387 37.408C72.7907 35.712 72.9667 34.144 72.9667 32.704ZM90.3427 54.16C90.1187 54.64 89.8787 55.136 89.6227 55.648C89.3987 56.16 89.1107 56.64 88.7587 57.088C86.9987 59.584 84.9987 61.552 82.7587 62.992C80.5187 64.4 78.2947 65.104 76.0867 65.104C74.7107 65.104 73.3987 64.784 72.1507 64.144C70.9027 63.536 69.7987 62.544 68.8387 61.168C68.7107 61.008 68.6467 60.864 68.6467 60.736C68.6467 60.448 68.8387 60.304 69.2227 60.304C69.2547 60.304 69.3667 60.336 69.5587 60.4C69.8147 60.4 70.1027 60.496 70.4227 60.688C70.7747 60.848 71.2707 60.928 71.9107 60.928C72.9027 60.928 73.8307 60.752 74.6947 60.4C75.5587 60.048 76.2947 59.6 76.9027 59.056C77.5427 58.48 78.0387 57.84 78.3907 57.136C78.7427 56.4 78.9187 55.648 78.9187 54.88C78.9187 53.92 78.6627 53.088 78.1507 52.384C77.6707 51.68 76.8387 51.328 75.6547 51.328C74.4387 51.328 73.3187 51.76 72.2947 52.624C71.2707 53.456 70.3427 54.48 69.5107 55.696C68.7107 56.88 68.0227 58.144 67.4467 59.488C66.8707 60.8 66.4387 61.952 66.1507 62.944C65.9907 63.488 65.8467 63.824 65.7187 63.952C65.5907 64.08 65.4467 64.144 65.2867 64.144C64.9347 64.144 64.7747 63.808 64.8067 63.136C64.8067 62.848 64.8227 62.496 64.8547 62.08C64.8867 61.664 64.9187 61.216 64.9507 60.736C64.9507 60.256 64.9667 59.776 64.9987 59.296C65.0307 58.784 65.0467 58.32 65.0467 57.904C65.0467 56.464 65.0147 54.816 64.9507 52.96C64.8867 51.072 64.8067 49.136 64.7107 47.152C64.6147 45.136 64.5347 43.136 64.4707 41.152C64.4067 39.168 64.3747 37.344 64.3747 35.68C64.3747 34.368 64.4707 33.104 64.6627 31.888C64.8547 30.64 65.1587 29.552 65.5747 28.624C65.9907 27.664 66.5187 26.912 67.1587 26.368C67.7987 25.792 68.5507 25.504 69.4147 25.504C70.3107 25.504 71.0627 25.664 71.6707 25.984C72.3107 26.272 72.8227 26.704 73.2067 27.28C73.5907 27.824 73.8627 28.496 74.0227 29.296C74.2147 30.064 74.3107 30.912 74.3107 31.84C74.3107 33.44 74.0867 35.2 73.6387 37.12C73.1907 39.008 72.5987 40.912 71.8627 42.832C71.1267 44.752 70.2787 46.608 69.3187 48.4C68.3907 50.16 67.4307 51.696 66.4387 53.008C66.5027 53.968 66.5347 54.96 66.5347 55.984C66.5667 57.008 66.6147 58.096 66.6787 59.248C67.4787 57.52 68.3587 56.032 69.3187 54.784C69.7347 54.24 70.1987 53.712 70.7107 53.2C71.2547 52.656 71.8147 52.176 72.3907 51.76C72.9987 51.344 73.6387 51.008 74.3107 50.752C75.0147 50.496 75.7507 50.368 76.5187 50.368C77.7347 50.368 78.7907 50.672 79.6867 51.28C80.5827 51.888 81.0307 52.864 81.0307 54.208C81.0307 55.488 80.7107 56.576 80.0707 57.472C79.4627 58.368 78.6947 59.12 77.7667 59.728C76.8387 60.304 75.8467 60.736 74.7907 61.024C73.7347 61.312 72.7747 61.488 71.9107 61.552C71.8467 61.552 71.8147 61.568 71.8147 61.6C71.8147 61.664 71.8627 61.76 71.9587 61.888C72.5987 62.624 73.3187 63.152 74.1187 63.472C74.9187 63.792 75.7507 63.952 76.6147 63.952C77.6707 63.952 78.7427 63.76 79.8307 63.376C80.9187 62.96 81.9587 62.432 82.9507 61.792C83.9427 61.12 84.8547 60.368 85.6867 59.536C86.5507 58.672 87.2547 57.808 87.7987 56.944C88.1187 56.464 88.4067 55.968 88.6627 55.456C88.9187 54.944 89.1747 54.432 89.4307 53.92L90.3427 54.16Z" fill="black"/>
<path d="M97.1096 51.184C97.1096 50.32 96.8856 49.616 96.4376 49.072C96.0216 48.496 95.3336 48.208 94.3736 48.208C93.8616 48.208 93.3976 48.368 92.9816 48.688C92.5656 49.008 92.2136 49.44 91.9256 49.984C91.6376 50.496 91.4136 51.104 91.2536 51.808C91.0936 52.512 91.0136 53.248 91.0136 54.016C91.0136 55.232 91.1416 56.32 91.3976 57.28C91.6856 58.208 92.0856 59.024 92.5976 59.728C93.2696 59.184 93.8776 58.56 94.4216 57.856C94.9656 57.152 95.4296 56.416 95.8136 55.648C96.2296 54.88 96.5496 54.112 96.7736 53.344C96.9976 52.576 97.1096 51.856 97.1096 51.184ZM109.254 54.16C109.03 54.64 108.79 55.136 108.534 55.648C108.31 56.128 108.022 56.608 107.67 57.088C106.102 59.328 104.31 61.024 102.294 62.176C100.31 63.296 98.4056 63.856 96.5816 63.856C95.5576 63.856 94.5976 63.68 93.7016 63.328C92.8376 62.976 92.0856 62.448 91.4456 61.744C90.8056 61.04 90.2936 60.16 89.9096 59.104C89.5256 58.048 89.3336 56.8 89.3336 55.36C89.3336 54.4 89.4776 53.44 89.7656 52.48C90.0536 51.52 90.4376 50.656 90.9176 49.888C91.4296 49.12 92.0056 48.496 92.6456 48.016C93.3176 47.536 94.0216 47.296 94.7576 47.296C95.9416 47.296 96.8056 47.648 97.3496 48.352C97.8936 49.024 98.1656 49.888 98.1656 50.944C98.1656 52.384 97.7176 53.952 96.8216 55.648C95.9576 57.312 94.7096 58.864 93.0776 60.304C94.2936 61.68 95.8616 62.368 97.7816 62.368C99.2216 62.368 100.726 61.936 102.294 61.072C103.862 60.176 105.334 58.8 106.71 56.944C107.062 56.496 107.35 56.016 107.574 55.504C107.83 54.96 108.086 54.432 108.342 53.92L109.254 54.16Z" fill="black"/>
<path d="M150.839 42.064C149.655 42.064 148.519 42.192 147.431 42.448C146.375 42.704 145.431 43.008 144.599 43.36C143.799 43.712 143.143 44.08 142.631 44.464C142.151 44.848 141.911 45.184 141.911 45.472C141.911 45.856 142.359 46.048 143.255 46.048C144.791 46.048 146.247 45.68 147.623 44.944C149.031 44.208 150.295 43.248 151.415 42.064H150.839ZM164.807 49.264C164.807 50.832 164.359 52.528 163.463 54.352C162.599 56.176 161.399 57.984 159.863 59.776C158.327 61.568 156.503 63.296 154.391 64.96C152.279 66.624 150.007 68.096 147.575 69.376C145.143 70.656 142.583 71.664 139.895 72.4C137.207 73.168 134.519 73.552 131.831 73.552C131.383 73.552 130.887 73.536 130.343 73.504C129.831 73.472 129.351 73.392 128.903 73.264C128.455 73.168 128.071 72.992 127.751 72.736C127.431 72.512 127.271 72.192 127.271 71.776C127.271 71.2 127.559 70.64 128.135 70.096C128.711 69.584 129.447 69.104 130.343 68.656C131.239 68.208 132.215 67.808 133.271 67.456C134.327 67.104 135.335 66.8 136.295 66.544C137.287 66.288 138.151 66.08 138.887 65.92C139.623 65.792 140.119 65.728 140.375 65.728C140.567 65.728 140.711 65.776 140.807 65.872C140.903 65.968 140.951 66.064 140.951 66.16C140.951 66.32 140.871 66.4 140.711 66.4H140.087C139.255 66.4 138.199 66.56 136.919 66.88C135.639 67.2 134.391 67.6 133.175 68.08C131.959 68.56 130.919 69.088 130.055 69.664C129.191 70.272 128.759 70.832 128.759 71.344C128.759 71.696 128.871 71.968 129.095 72.16C129.351 72.384 129.655 72.56 130.007 72.688C130.359 72.816 130.727 72.896 131.111 72.928C131.495 72.992 131.831 73.024 132.119 73.024C134.391 73.024 136.711 72.64 139.079 71.872C141.479 71.104 143.799 70.08 146.039 68.8C148.311 67.552 150.439 66.096 152.423 64.432C154.439 62.8 156.199 61.104 157.703 59.344C159.207 57.552 160.391 55.776 161.255 54.016C162.119 52.224 162.551 50.56 162.551 49.024C162.551 47.136 161.767 45.568 160.199 44.32C158.663 43.04 156.119 42.304 152.567 42.112C151.127 43.456 149.543 44.544 147.815 45.376C146.119 46.208 144.391 46.624 142.631 46.624C141.383 46.624 140.759 46.32 140.759 45.712C140.759 45.328 141.015 44.896 141.527 44.416C142.071 43.904 142.807 43.424 143.735 42.976C144.695 42.528 145.831 42.16 147.143 41.872C148.455 41.552 149.895 41.392 151.463 41.392H152.039C153.095 40.144 153.943 38.784 154.583 37.312C155.223 35.808 155.543 34.336 155.543 32.896C155.543 31.936 155.367 31.024 155.015 30.16C154.695 29.264 154.151 28.496 153.383 27.856C152.647 27.216 151.671 26.704 150.455 26.32C149.271 25.936 147.831 25.744 146.135 25.744C144.983 25.744 143.383 25.904 141.335 26.224C139.319 26.544 137.127 27.04 134.759 27.712C132.423 28.352 130.039 29.168 127.607 30.16C125.175 31.152 122.967 32.304 120.983 33.616C118.999 34.928 117.383 36.416 116.135 38.08C114.887 39.744 114.263 41.584 114.263 43.6C114.263 43.856 114.215 44.08 114.119 44.272C114.023 44.432 113.927 44.512 113.831 44.512C113.703 44.512 113.607 44.384 113.543 44.128C113.447 43.84 113.399 43.376 113.399 42.736C113.687 40.656 114.535 38.768 115.943 37.072C117.351 35.376 119.095 33.872 121.175 32.56C123.223 31.216 125.479 30.064 127.943 29.104C130.407 28.144 132.839 27.36 135.239 26.752C137.671 26.112 139.927 25.648 142.007 25.36C144.119 25.04 145.847 24.88 147.191 24.88C149.143 24.88 150.791 25.072 152.135 25.456C153.511 25.808 154.631 26.304 155.495 26.944C156.359 27.552 156.983 28.288 157.367 29.152C157.751 30.016 157.943 30.928 157.943 31.888C157.943 33.456 157.511 35.088 156.647 36.784C155.815 38.448 154.679 40 153.239 41.44C155.287 41.536 157.047 41.808 158.519 42.256C159.991 42.672 161.191 43.232 162.119 43.936C163.047 44.608 163.719 45.408 164.135 46.336C164.583 47.232 164.807 48.208 164.807 49.264ZM139.367 61.888C139.367 62.336 139.335 62.656 139.271 62.848C139.207 63.04 139.031 63.136 138.743 63.136C138.103 63.2 137.783 62.56 137.783 61.216C137.751 56.8 137.703 52.768 137.639 49.12C137.607 45.472 137.559 42.32 137.495 39.664C137.463 36.976 137.431 34.848 137.399 33.28C137.367 31.712 137.351 30.816 137.351 30.592C137.351 30.336 137.431 30.16 137.591 30.064C137.751 29.968 137.943 29.888 138.167 29.824C138.423 29.824 138.615 29.904 138.743 30.064C138.903 30.224 138.983 30.416 138.983 30.64C138.983 33.2 138.999 35.84 139.031 38.56C139.063 41.248 139.095 43.936 139.127 46.624C139.191 49.312 139.239 51.952 139.271 54.544C139.335 57.136 139.367 59.584 139.367 61.888Z" fill="black"/>
<path d="M183.465 54.208C183.465 53.728 183.385 53.344 183.225 53.056C183.065 52.736 182.809 52.576 182.457 52.576C181.913 52.576 181.497 52.848 181.209 53.392C180.921 53.904 180.793 54.56 180.825 55.36C180.921 57.056 181.225 58.48 181.737 59.632C182.281 58.896 182.697 58.064 182.985 57.136C183.305 56.208 183.465 55.232 183.465 54.208ZM196.425 54.16C196.201 54.64 195.961 55.136 195.705 55.648C195.449 56.128 195.161 56.608 194.841 57.088C193.209 59.52 191.561 61.328 189.897 62.512C188.233 63.696 186.681 64.288 185.241 64.288C183.417 64.288 182.025 63.424 181.065 61.696C179.945 62.816 178.681 63.664 177.273 64.24C175.897 64.816 174.537 65.104 173.193 65.104C172.393 65.104 171.625 64.992 170.889 64.768C170.185 64.544 169.577 64.208 169.065 63.76C168.521 63.28 168.089 62.688 167.769 61.984C167.449 61.248 167.289 60.4 167.289 59.44C167.289 58.288 167.561 57.12 168.105 55.936C168.617 54.72 169.337 53.632 170.265 52.672C171.225 51.68 172.345 50.864 173.625 50.224C174.905 49.584 176.297 49.264 177.801 49.264C179.017 49.264 179.961 49.44 180.633 49.792C181.305 50.112 181.641 50.416 181.641 50.704C181.641 50.832 181.577 50.928 181.449 50.992C181.321 51.056 181.209 51.088 181.113 51.088C181.081 51.056 181.049 51.04 181.017 51.04H180.969C180.585 50.688 180.153 50.416 179.673 50.224C179.193 50 178.489 49.888 177.561 49.888C176.313 49.888 175.177 50.16 174.153 50.704C173.161 51.216 172.313 51.904 171.609 52.768C170.905 53.6 170.361 54.528 169.977 55.552C169.593 56.576 169.401 57.584 169.401 58.576C169.401 60.496 169.849 61.888 170.745 62.752C171.641 63.616 172.761 64.048 174.105 64.048C175.193 64.048 176.329 63.776 177.513 63.232C178.697 62.688 179.753 61.92 180.681 60.928C180.169 59.776 179.913 58.272 179.913 56.416C179.913 55.2 180.137 54.144 180.585 53.248C181.033 52.352 181.673 51.904 182.505 51.904C183.657 51.904 184.233 52.576 184.233 53.92C184.233 55.264 184.041 56.48 183.657 57.568C183.273 58.624 182.761 59.584 182.121 60.448C183.017 62.112 184.265 62.944 185.865 62.944C187.081 62.944 188.377 62.432 189.753 61.408C191.161 60.384 192.537 58.896 193.881 56.944C194.201 56.464 194.489 55.968 194.745 55.456C195.001 54.944 195.257 54.432 195.513 53.92L196.425 54.16Z" fill="black"/>
<path d="M203.092 32.704C203.092 30.88 202.788 29.424 202.18 28.336C201.604 27.216 200.628 26.656 199.252 26.656C198.772 26.656 198.324 26.816 197.908 27.136C197.524 27.424 197.188 27.824 196.9 28.336C196.612 28.848 196.388 29.44 196.228 30.112C196.068 30.784 195.988 31.504 195.988 32.272C195.988 34.384 196.004 36.304 196.036 38.032C196.068 39.76 196.1 41.392 196.132 42.928C196.196 44.464 196.26 45.952 196.324 47.392C196.388 48.832 196.452 50.304 196.516 51.808C197.444 50.56 198.308 49.136 199.108 47.536C199.908 45.904 200.596 44.24 201.172 42.544C201.78 40.816 202.244 39.104 202.564 37.408C202.916 35.712 203.092 34.144 203.092 32.704ZM220.468 54.16C220.244 54.64 220.004 55.136 219.748 55.648C219.524 56.16 219.236 56.64 218.884 57.088C217.124 59.584 215.124 61.552 212.884 62.992C210.644 64.4 208.42 65.104 206.212 65.104C204.836 65.104 203.524 64.784 202.276 64.144C201.028 63.536 199.924 62.544 198.964 61.168C198.836 61.008 198.772 60.864 198.772 60.736C198.772 60.448 198.964 60.304 199.348 60.304C199.38 60.304 199.492 60.336 199.684 60.4C199.94 60.4 200.228 60.496 200.548 60.688C200.9 60.848 201.396 60.928 202.036 60.928C203.028 60.928 203.956 60.752 204.82 60.4C205.684 60.048 206.42 59.6 207.028 59.056C207.668 58.48 208.164 57.84 208.516 57.136C208.868 56.4 209.044 55.648 209.044 54.88C209.044 53.92 208.788 53.088 208.276 52.384C207.796 51.68 206.964 51.328 205.78 51.328C204.564 51.328 203.444 51.76 202.42 52.624C201.396 53.456 200.468 54.48 199.636 55.696C198.836 56.88 198.148 58.144 197.572 59.488C196.996 60.8 196.564 61.952 196.276 62.944C196.116 63.488 195.972 63.824 195.844 63.952C195.716 64.08 195.572 64.144 195.412 64.144C195.06 64.144 194.9 63.808 194.932 63.136C194.932 62.848 194.948 62.496 194.98 62.08C195.012 61.664 195.044 61.216 195.076 60.736C195.076 60.256 195.092 59.776 195.124 59.296C195.156 58.784 195.172 58.32 195.172 57.904C195.172 56.464 195.14 54.816 195.076 52.96C195.012 51.072 194.932 49.136 194.836 47.152C194.74 45.136 194.66 43.136 194.596 41.152C194.532 39.168 194.5 37.344 194.5 35.68C194.5 34.368 194.596 33.104 194.788 31.888C194.98 30.64 195.284 29.552 195.7 28.624C196.116 27.664 196.644 26.912 197.284 26.368C197.924 25.792 198.676 25.504 199.54 25.504C200.436 25.504 201.188 25.664 201.796 25.984C202.436 26.272 202.948 26.704 203.332 27.28C203.716 27.824 203.988 28.496 204.148 29.296C204.34 30.064 204.436 30.912 204.436 31.84C204.436 33.44 204.212 35.2 203.764 37.12C203.316 39.008 202.724 40.912 201.988 42.832C201.252 44.752 200.404 46.608 199.444 48.4C198.516 50.16 197.556 51.696 196.564 53.008C196.628 53.968 196.66 54.96 196.66 55.984C196.692 57.008 196.74 58.096 196.804 59.248C197.604 57.52 198.484 56.032 199.444 54.784C199.86 54.24 200.324 53.712 200.836 53.2C201.38 52.656 201.94 52.176 202.516 51.76C203.124 51.344 203.764 51.008 204.436 50.752C205.14 50.496 205.876 50.368 206.644 50.368C207.86 50.368 208.916 50.672 209.812 51.28C210.708 51.888 211.156 52.864 211.156 54.208C211.156 55.488 210.836 56.576 210.196 57.472C209.588 58.368 208.82 59.12 207.892 59.728C206.964 60.304 205.972 60.736 204.916 61.024C203.86 61.312 202.9 61.488 202.036 61.552C201.972 61.552 201.94 61.568 201.94 61.6C201.94 61.664 201.988 61.76 202.084 61.888C202.724 62.624 203.444 63.152 204.244 63.472C205.044 63.792 205.876 63.952 206.74 63.952C207.796 63.952 208.868 63.76 209.956 63.376C211.044 62.96 212.084 62.432 213.076 61.792C214.068 61.12 214.98 60.368 215.812 59.536C216.676 58.672 217.38 57.808 217.924 56.944C218.244 56.464 218.532 55.968 218.788 55.456C219.044 54.944 219.3 54.432 219.556 53.92L220.468 54.16Z" fill="black"/>
<path d="M227.235 51.184C227.235 50.32 227.011 49.616 226.563 49.072C226.147 48.496 225.459 48.208 224.499 48.208C223.987 48.208 223.523 48.368 223.107 48.688C222.691 49.008 222.339 49.44 222.051 49.984C221.763 50.496 221.539 51.104 221.379 51.808C221.219 52.512 221.139 53.248 221.139 54.016C221.139 55.232 221.267 56.32 221.523 57.28C221.811 58.208 222.211 59.024 222.723 59.728C223.395 59.184 224.003 58.56 224.547 57.856C225.091 57.152 225.555 56.416 225.939 55.648C226.355 54.88 226.675 54.112 226.899 53.344C227.123 52.576 227.235 51.856 227.235 51.184ZM239.379 54.16C239.155 54.64 238.915 55.136 238.659 55.648C238.435 56.128 238.147 56.608 237.795 57.088C236.227 59.328 234.435 61.024 232.419 62.176C230.435 63.296 228.531 63.856 226.707 63.856C225.683 63.856 224.723 63.68 223.827 63.328C222.963 62.976 222.211 62.448 221.571 61.744C220.931 61.04 220.419 60.16 220.035 59.104C219.651 58.048 219.459 56.8 219.459 55.36C219.459 54.4 219.603 53.44 219.891 52.48C220.179 51.52 220.563 50.656 221.043 49.888C221.555 49.12 222.131 48.496 222.771 48.016C223.443 47.536 224.147 47.296 224.883 47.296C226.067 47.296 226.931 47.648 227.475 48.352C228.019 49.024 228.291 49.888 228.291 50.944C228.291 52.384 227.843 53.952 226.947 55.648C226.083 57.312 224.835 58.864 223.203 60.304C224.419 61.68 225.987 62.368 227.907 62.368C229.347 62.368 230.851 61.936 232.419 61.072C233.987 60.176 235.459 58.8 236.835 56.944C237.187 56.496 237.475 56.016 237.699 55.504C237.955 54.96 238.211 54.432 238.467 53.92L239.379 54.16Z" fill="black"/>
</svg>
